# xmcd
#
# Track frame offsets:
#	150
#	17156
#	34435
#	50699
#	65498
#	83633
#	100113
#	118787
#	137245
#	153194
#	171346
#	189328
#	210530
#	227798
#	244796
#	263159
#	280781
#	299333
#	312579
#	330591
#
# Disc length: 4660 seconds
#
# Revision: 0
# Processed by: cddbd v1.5.1PL0 Copyright (c) Steve Scherf et al.
# Submitted via: dBpowerAMP V4.0
#
DISCID=26123214
DTITLE=Nek - Tan solo Tú
DYEAR=2002
DGENRE=Latin
TTITLE0=Laura no está
TTITLE1=Las Cosas que defenderé
TTITLE2=Se una Regola c'è
TTITLE3=Tan solo Tú
TTITLE4=Tú
TTITLE5=Cuando tú no estás
TTITLE6=Facciamo un Week-end
TTITLE7=Nemmeno un Secondo
TTITLE8=Con un ma e con un se
TTITLE9=Laberinto
TTITLE10=Ragazze della 5a b
TTITLE11=Cuore in Tempestá
TTITLE12=La Consecuencia
TTITLE13=Se io non avessi te
TTITLE14=Se vuoi se puoi
TTITLE15=Tu Nombre
TTITLE16=Tu estás aquí
TTITLE17=C'è tutto un Mondo
TTITLE18=Laura no está (dance remix)
TTITLE19=Se una Regola c'è (club remix)
EXTD=
EXTT0=
EXTT1=
EXTT2=
EXTT3=
EXTT4=
EXTT5=
EXTT6=
EXTT7=
EXTT8=
EXTT9=
EXTT10=
EXTT11=
EXTT12=
EXTT13=
EXTT14=
EXTT15=
EXTT16=
EXTT17=
EXTT18=
EXTT19=
PLAYORDER=
